<svg width="100" height="33" viewBox="0 0 100 33" fill="none" xmlns="http://www.w3.org/2000/svg">
<path d="M100 3.29C100 5.10702 98.527 6.58 96.71 6.58C94.893 6.58 93.42 5.10702 93.42 3.29C93.42 1.47298 94.893 0 96.71 0C98.527 0 100 1.47298 100 3.29Z" fill="#FF0000"/>
<path d="M24.6082 14.0001H18.7599C18.6531 13.2435 18.435 12.5714 18.1057 11.9839C17.7763 11.3875 17.3535 10.8801 16.8372 10.4618C16.3209 10.0434 15.7245 9.72295 15.048 9.50041C14.3804 9.27787 13.6549 9.1666 12.8716 9.1666C11.4563 9.1666 10.2234 9.51821 9.17301 10.2214C8.12263 10.9158 7.30815 11.9305 6.72955 13.2658C6.15095 14.5921 5.86165 16.2033 5.86165 18.0993C5.86165 20.0487 6.15095 21.6866 6.72955 23.0129C7.31705 24.3392 8.13599 25.3407 9.18637 26.0172C10.2367 26.6937 11.4518 27.0319 12.8315 27.0319C13.606 27.0319 14.3225 26.9296 14.9813 26.7248C15.6489 26.5201 16.2408 26.2219 16.7571 25.8302C17.2734 25.4297 17.7007 24.9445 18.0389 24.3748C18.3861 23.8051 18.6264 23.1553 18.7599 22.4254L24.6082 22.4521C24.4569 23.7072 24.0786 24.9178 23.4733 26.0839C22.8769 27.2411 22.0713 28.2782 21.0565 29.195C20.0507 30.103 18.849 30.824 17.4514 31.3581C16.0628 31.8833 14.4917 32.1459 12.7381 32.1459C10.2991 32.1459 8.11818 31.594 6.19546 30.4902C4.28163 29.3864 2.76837 27.7886 1.65568 25.6967C0.551894 23.6049 0 21.0724 0 18.0993C0 15.1173 0.560796 12.5803 1.68239 10.4885C2.80398 8.39662 4.32614 6.80325 6.24887 5.70836C8.17159 4.60458 10.3347 4.05268 12.7381 4.05268C14.3225 4.05268 15.7913 4.27522 17.1443 4.7203C18.5063 5.16537 19.7124 5.81518 20.7628 6.66973C21.8132 7.51537 22.6677 8.5524 23.3264 9.78081C23.994 11.0092 24.4213 12.4157 24.6082 14.0001Z" fill="white"/>
<path d="M27.5193 31.772V11.2629H33.0338V14.8413H33.2474C33.6213 13.5684 34.2489 12.607 35.1301 11.9572C36.0114 11.2985 37.0261 10.9692 38.1744 10.9692C38.4593 10.9692 38.7664 10.987 39.0957 11.0226C39.4251 11.0582 39.7144 11.1071 39.9636 11.1694V16.2166C39.6966 16.1365 39.3272 16.0653 38.8554 16.003C38.3836 15.9407 37.9519 15.9095 37.5602 15.9095C36.7235 15.9095 35.9757 16.092 35.317 16.4569C34.6672 16.813 34.1509 17.3115 33.7682 17.9524C33.3943 18.5933 33.2074 19.3321 33.2074 20.1689V31.772H27.5193Z" fill="white"/>
<path d="M50.1684 32.1726C48.0587 32.1726 46.2428 31.7453 44.7206 30.8908C43.2074 30.0273 42.0413 28.8078 41.2223 27.2322C40.4034 25.6478 39.9939 23.774 39.9939 21.6109C39.9939 19.5013 40.4034 17.6497 41.2223 16.0564C42.0413 14.463 43.194 13.2212 44.6806 12.3311C46.176 11.4409 47.9296 10.9959 49.9414 10.9959C51.2944 10.9959 52.554 11.214 53.7201 11.6501C54.8951 12.0774 55.9188 12.7228 56.7911 13.5862C57.6723 14.4497 58.3578 15.5356 58.8474 16.8442C59.3369 18.1438 59.5817 19.6659 59.5817 21.4106V22.9729H42.2638V19.4479H54.2275C54.2275 18.6289 54.0494 17.9034 53.6934 17.2714C53.3373 16.6394 52.8433 16.1454 52.2113 15.7893C51.5882 15.4244 50.8627 15.2419 50.0349 15.2419C49.1714 15.2419 48.4059 15.4422 47.7383 15.8427C47.0795 16.2344 46.5633 16.764 46.1894 17.4317C45.8155 18.0904 45.6241 18.8248 45.6152 19.6348V22.9862C45.6152 24.001 45.8022 24.8778 46.176 25.6166C46.5588 26.3554 47.0973 26.9251 47.7917 27.3257C48.486 27.7263 49.3094 27.9266 50.2618 27.9266C50.8938 27.9266 51.4724 27.8375 51.9976 27.6595C52.5228 27.4815 52.9723 27.2144 53.3462 26.8584C53.7201 26.5023 54.0049 26.0661 54.2008 25.5498L59.4616 25.897C59.1945 27.161 58.6471 28.2648 57.8192 29.2084C57.0003 30.143 55.941 30.873 54.6414 31.3981C53.3507 31.9144 51.8597 32.1726 50.1684 32.1726Z" fill="white"/>
<path d="M73.0745 11.2629V15.5356H60.7236V11.2629H73.0745ZM63.5276 6.34927H69.2157V25.4697C69.2157 25.9949 69.2958 26.4044 69.456 26.6981C69.6162 26.983 69.8388 27.1833 70.1236 27.299C70.4174 27.4147 70.7556 27.4726 71.1384 27.4726C71.4054 27.4726 71.6725 27.4503 71.9395 27.4058C72.2066 27.3524 72.4113 27.3123 72.5537 27.2856L73.4483 31.5183C73.1635 31.6073 72.7629 31.7097 72.2466 31.8254C71.7303 31.95 71.1028 32.0257 70.364 32.0524C68.9931 32.1058 67.7914 31.9233 66.7588 31.505C65.7352 31.0866 64.9385 30.4368 64.3688 29.5555C63.7991 28.6743 63.5187 27.5616 63.5276 26.2175V6.34927Z" fill="white"/>
<path d="M88.8037 23.0396V11.2629H94.4918V31.772H89.0307V28.0467H88.8171C88.3542 29.2484 87.5842 30.2142 86.5071 30.9442C85.4389 31.6741 84.1349 32.0391 82.5949 32.0391C81.2241 32.0391 80.0179 31.7275 78.9764 31.1044C77.935 30.4813 77.1205 29.5956 76.533 28.4473C75.9544 27.299 75.6606 25.9237 75.6517 24.3214V11.2629H81.3398V23.3067C81.3487 24.5173 81.6736 25.4742 82.3145 26.1774C82.9554 26.8806 83.8144 27.2322 84.8915 27.2322C85.5769 27.2322 86.2178 27.0765 86.8142 26.7649C87.4106 26.4444 87.8913 25.9727 88.2563 25.3496C88.6301 24.7265 88.8126 23.9565 88.8037 23.0396Z" fill="white"/>
</svg>
